<?xml version="1.0" encoding="UTF-8" standalone="no"?>
<!-- Created with Inkscape (http://www.inkscape.org/) -->

<svg
   xmlns:dc="http://purl.org/dc/elements/1.1/"
   xmlns:cc="http://creativecommons.org/ns#"
   xmlns:rdf="http://www.w3.org/1999/02/22-rdf-syntax-ns#"
   xmlns:svg="http://www.w3.org/2000/svg"
   xmlns="http://www.w3.org/2000/svg"
   xmlns:sodipodi="http://sodipodi.sourceforge.net/DTD/sodipodi-0.dtd"
   xmlns:inkscape="http://www.inkscape.org/namespaces/inkscape"
   id="svg3406"
   version="1.1"
   inkscape:version="0.91 r"
   width="31"
   height="30"
   viewBox="0 0 496.25 421.875"
   sodipodi:docname="merda_con_occhi.svg">
  <metadata
     id="metadata3412">
    <rdf:RDF>
      <cc:Work
         rdf:about="">
        <dc:format>image/svg+xml</dc:format>
        <dc:type
           rdf:resource="http://purl.org/dc/dcmitype/StillImage" />
        <dc:title></dc:title>
      </cc:Work>
    </rdf:RDF>
  </metadata>
  <defs
     id="defs3410" />
  <sodipodi:namedview
     pagecolor="#ffffff"
     bordercolor="#666666"
     borderopacity="1"
     objecttolerance="10"
     gridtolerance="10"
     guidetolerance="10"
     inkscape:pageopacity="0"
     inkscape:pageshadow="2"
     inkscape:window-width="1680"
     inkscape:window-height="996"
     id="namedview3408"
     showgrid="false"
     inkscape:zoom="0.93665256"
     inkscape:cx="257.32476"
     inkscape:cy="173.22001"
     inkscape:window-x="0"
     inkscape:window-y="0"
     inkscape:window-maximized="1"
     inkscape:current-layer="svg3406" />
  <g
     id="g3457">
    <path
       sodipodi:nodetypes="ssssssss"
       inkscape:connector-curvature="0"
       id="path3421"
       d="m 128.2278,227.03536 c -22.51539,15.29095 -29.890582,45.95271 -12.21217,76.04852 22.79094,38.7994 82.3021,47.32393 127.67269,47.18339 48.91365,-0.15151 105.57628,-5.49786 134.33388,-39.96711 16.24116,-19.46688 16.41112,-55.83426 1.1102,-76.04852 -7.74893,-10.23722 -26.73982,-12.1823 -41.0773,-14.43256 -27.98273,-4.39188 -60.37582,10.25411 -91.53879,7.23034 -45.60985,-4.42557 -91.43903,-18.24845 -118.28851,-0.0141 z"
       style="fill:#88664e;fill-rule:evenodd;stroke:none;stroke-width:1px;stroke-linecap:butt;stroke-linejoin:miter;stroke-opacity:1;fill-opacity:1;opacity:1" />
    <path
       sodipodi:nodetypes="sssssssss"
       inkscape:connector-curvature="0"
       id="path3442"
       d="m 365.25493,212.60278 c 0,13.61209 -4.58483,26.35396 -17.16508,36.28403 -21.13642,16.68378 -59.78329,26.44213 -100.23829,26.44213 -40.40838,0 -78.0288,-10.2897 -98.84932,-26.93958 -12.43054,-9.94053 -17.44384,-22.14814 -17.44384,-35.78658 0,-12.17553 5.70328,-24.13544 15.70189,-33.18814 19.9607,-18.07234 57.04006,-27.87271 100.03617,-27.87271 38.20612,0 74.18391,9.17008 95.82165,23.76977 14.91032,10.06048 22.13682,22.40766 22.13682,37.29108 z"
       style="opacity:1;fill:#9a7863;fill-opacity:1;stroke:none;stroke-opacity:1" />
    <path
       sodipodi:nodetypes="csssssaaac"
       inkscape:connector-curvature="0"
       id="path3455"
       d="m 222.41562,68.258878 c 2.47964,8.778749 -8.16835,25.499707 0.53684,32.984552 13.20214,11.35138 36.66623,9.3818 58.0154,10.69328 19.52354,1.19933 37.1905,5.37693 45.43016,20.17678 4.71237,8.46423 6.8124,19.43198 3.69068,29.6985 -2.62116,8.62034 -9.57872,16.7463 -15.34775,22.48077 -20.41171,20.28945 -56.05598,23.44983 -84.375,18.31826 -22.52423,-4.08152 -46.91001,-17.0193 -57.73026,-37.19161 -9.99466,-18.63317 -9.08185,-44.77472 0.87648,-63.42733 9.32661,-17.469355 45.5439,-43.561782 48.90345,-33.733202 z"
       style="fill:#a78674;fill-opacity:1;fill-rule:evenodd;stroke:none;stroke-width:1px;stroke-linecap:butt;stroke-linejoin:miter;stroke-opacity:1" />
    <circle
       r="34.138569"
       cy="218.98642"
       cx="199.00287"
       id="path3451"
       style="opacity:1;fill:#ffffff;fill-opacity:1;stroke:none;stroke-opacity:1" />
    <ellipse
       ry="17.763159"
       rx="16.652962"
       cy="232.5851"
       cx="208.7171"
       id="path3447"
       style="opacity:1;fill:#000000;fill-opacity:1;stroke:none;stroke-opacity:1" />
    <circle
       style="opacity:1;fill:#ffffff;fill-opacity:1;stroke:none;stroke-opacity:1"
       id="circle3453"
       cx="297.00287"
       cy="218.98642"
       r="34.138569" />
    <ellipse
       style="opacity:1;fill:#000000;fill-opacity:1;stroke:none;stroke-opacity:1"
       id="ellipse3449"
       cx="288.16202"
       cy="233.26398"
       rx="17.208061"
       ry="17.763159" />
  </g>
</svg>
